# xmcd
# 
# Track frame offsets:
#     150
#     13093
#     36603
#     61665
#     78313
#     95220
#     113518
#     131873
#     148148
#     172978
#     197615
# 
# Disc length: 2922
# 
# Revision: 2
# Processed by: cddbd v1.5.2PL0 Copyright (c) Steve Scherf et al.
# Submitted via: BonkEnc v1.0.8
# 
DISCID=980b680b
DTITLE=Little Axe - Hard Grind
DYEAR=2002
DGENRE=Blues
TTITLE0=Dark As The Night Cold As The Ground
TTITLE1=Blues Story II
TTITLE2=Run Here Boy
TTITLE3=One Drop Blues
TTITLE4=All Night Party
TTITLE5=Midnight Dream
TTITLE6=Walk Right Shoes
TTITLE7=Long Way To Go
TTITLE8=Down To The Valley
TTITLE9=Tight Like That
TTITLE10=Seek The Truth
EXTD=
EXTT0=
EXTT1=
EXTT2=
EXTT3=
EXTT4=
EXTT5=
EXTT6=
EXTT7=
EXTT8=
EXTT9=
EXTT10=
PLAYORDER=
